#!OML:ASF E:/inclinewalkrobotboard/Project1/Captureday1/Session1/subject1.ASF
:FULLY-SPECIFIED
:DEGREES
201
root 0 0 0 1.813629532532222 -10.53375012119291 0.9217321576372574
lowerback -0.2506479377525159 -1.6342856158927321 -2.719143825545599
upperback -0.567155572360448 -2.1336186624801723 1.7149894171770526
thorax -0.34879599358156177 -1.0598054170474531 3.220854738514076
lowerneck -25.32840785992148 -1.8623727888199655 -7.7454702810815705
upperneck 25.98285223755952 -0.12174451040873113 2.3834074424929668
head 12.958000546147016 -0.6359648232987289 2.3029854234384963
rclavicle -6.803764162262206E-15 -2.5517931241560126E-16
rhumerus -30.972242558116246 -1.0934149799807331 -81.77216109314519
rradius 31.463921896215073
rwrist 18.29693125750427
rhand -18.410585020827586 9.415559630898038
rfingers 7.1250199999999335
rthumb 7.868967639201102 -20.364086408545997
lclavicle -8.502602360696596E-15 3.2474948106324765E-15
lhumerus -20.3534453487732 0.004911292264020872 91.5322740188316
lradius 61.05429292997709
lwrist 1.7018244976917547
lhand -28.668710908958793 20.687319419140493
lfingers 7.125020000000006
lthumb -2.055966590543367 50.65004224653185
rfemur -3.863303214139969 2.4709665651911727 24.183114808113714
rtibia 63.01512440671579
rfoot 9.212663690949716 -0.28198078591187503
rtoes 7.413866114820054
lfemur -21.86410233346497 -3.4543542557593847 -16.88947877480842
ltibia 34.62942959840293
lfoot -1.6713294940580319 -4.347260319823597
ltoes 5.384335798750627
202
root 0 0 0 1.8313741465929427 -10.601446455358923 0.9094444463260645
lowerback -0.26768446885194264 -1.6682538626945687 -2.699579337155245
upperback -0.5090839697555065 -2.1784687913268317 1.6875283315293967
thorax -0.27226947010070746 -1.0851606399628757 3.1817882074364228
lowerneck -25.254474108064915 -1.8432946405936501 -7.781210427817997
upperneck 26.555758681157158 -0.07961679919287468 2.2895763756699803
head 13.139679525815682 -0.6395113361567762 2.2872510086842373
rclavicle -7.547748631628977E-15 1.4152634724122761E-15
rhumerus -31.424309038205482 -2.310555180571305 -81.45312955759084
rradius 31.113912243147222
rwrist 18.62127111084925
rhand -18.14492298225704 9.38203532519134
rfingers 7.125019999999929
rthumb 8.125630397614174 -20.394229776649947
lclavicle -8.57497640949643E-15 3.9841032726550475E-15
lhumerus -20.955859804379187 -0.8337918454384701 91.64926595650701
lradius 61.301443342010465
lwrist 2.161181095245923
lhand -28.339955313298184 20.911529959237047
lfingers 7.125020000000007
lthumb -1.7394960660186012 50.899155665570504
rfemur -8.71213616564276 1.5198130375442416 23.83437941209455
rtibia 67.8375085964021
rfoot 7.739083284561891 -2.802355014260262
rtoes 11.37196775591093
lfemur -17.670070375183005 -2.903085358892347 -20.466772263187053
ltibia 33.820446782787265
lfoot -4.058807122670103 -3.85924601840731
ltoes 8.102353961787983
203
root 0 0 0 1.855821935131794 -10.625173076464307 0.8918786173571326
lowerback -0.2444375035443178 -1.6907732742809725 -2.680354324522589
upperback -0.4436583718000904 -2.209212627198819 1.6796256866075765
thorax -0.20979170649474455 -1.1036680483005454 3.1626383734726113
lowerneck -25.14851278924461 -1.8120416326105735 -7.801677770297145
upperneck 26.938259296944327 -0.03369135794428524 2.224111988714788
head 13.248542329471567 -0.6315277281244251 2.2780939471431174
rclavicle -5.500604310206676E-15 2.059602313364668E-15
rhumerus -31.79539782758 -3.493465817275906 -81.25068799536798
rradius 30.855802853371667
rwrist 18.93329053754336
rhand -17.876194555193205 9.319723234064151
rfingers 7.125019999999926
rthumb 8.384455095609674 -20.449095807906602
lclavicle -7.206898420428654E-15 4.254451068759809E-15
lhumerus -21.623567830053307 -1.884812889049193 91.7632743146899
lradius 61.71114515118754
lwrist 2.5953389756729184
lhand -28.047221430236448 21.223026893496797
lfingers 7.125020000000007
lthumb -1.457209487470501 51.235769741042986
rfemur -15.6893491179269 -0.018014768831523753 22.344940614957324
rtibia 71.7795442770996
rfoot 1.7868176931441138 -5.268436873964957
rtoes 8.866990797307082
lfemur -13.36850968652312 -2.9127972231972 -23.918713401863787
ltibia 28.864882285390582
lfoot -9.726581978916157 -0.5371143935741491
ltoes 10.092151260794711
204
root 0 0 0 1.8857503997895557 -10.637146805432014 0.8797178842961613
lowerback -0.2295896718987438 -1.708184293053615 -2.673390931454241
upperback -0.3889071394970473 -2.233531000135319 1.6755523587241434
thorax -0.1537747797945337 -1.1183642321449299 3.153914738543784
lowerneck -25.043070739902355 -1.7849803184134503 -7.831175266075999
upperneck 27.24069550732353 0.002683115680810255 2.195881886185135
head 13.331280263122927 -0.6233047947738448 2.2818274846526116
rclavicle -3.686335862990514E-15 1.8213533837272196E-15
rhumerus -31.989530814062324 -3.9446413465775847 -81.0935170197336
rradius 30.704671271182697
rwrist 19.07171804296692
rhand -17.77299221068722 9.302014280339574
rfingers 7.125019999999925
rthumb 8.48356872908979 -20.46306329403359
lclavicle -6.6125025698955544E-15 3.991841209519414E-15
lhumerus -21.96261750225177 -2.937736921608514 91.793614225032
lradius 62.16908706149208
lwrist 2.936231673087219
lhand -27.89545336245832 21.519077381376544
lfingers 7.1250200000000055
lthumb -1.3117279341714303 51.54766931669543
rfemur -24.240374669134994 -1.213401865311905 19.84808342274269
rtibia 72.0787710545402
rfoot -3.2370085981871632 -6.796356217040147
rtoes 5.434329945551021
lfemur -7.725080160304726 -3.313187860981447 -26.715548121982298
ltibia 23.99163173092077
lfoot -15.969669754437426 1.992359764737948
ltoes 9.389410568195906
